<svg width="32" height="33" viewBox="0 0 32 33" fill="none" xmlns="http://www.w3.org/2000/svg">
<g clip-path="url(#clip0_1344_16271)">
<path d="M17.2535 16.4999L23.7335 10.0199C23.8792 9.84986 23.9552 9.63113 23.9466 9.40741C23.938 9.1837 23.8452 8.97149 23.6869 8.81318C23.5286 8.65488 23.3164 8.56214 23.0927 8.5535C22.869 8.54486 22.6502 8.62095 22.4802 8.76657L16.0002 15.2466L9.52019 8.75768C9.35015 8.61206 9.13141 8.53597 8.9077 8.54461C8.68399 8.55325 8.47178 8.64599 8.31347 8.8043C8.15516 8.9626 8.06242 9.17481 8.05378 9.39853C8.04514 9.62224 8.12124 9.84097 8.26686 10.011L14.7469 16.4999L8.25797 22.9799C8.16492 23.0596 8.08935 23.1577 8.03599 23.2679C7.98264 23.3782 7.95266 23.4983 7.94793 23.6207C7.9432 23.7432 7.96383 23.8652 8.00852 23.9793C8.0532 24.0934 8.12099 24.197 8.20762 24.2836C8.29424 24.3702 8.39784 24.438 8.51191 24.4827C8.62597 24.5274 8.74805 24.548 8.87046 24.5433C8.99288 24.5386 9.113 24.5086 9.22328 24.4552C9.33356 24.4019 9.43162 24.3263 9.5113 24.2332L16.0002 17.7532L22.4802 24.2332C22.6502 24.3789 22.869 24.455 23.0927 24.4463C23.3164 24.4377 23.5286 24.3449 23.6869 24.1866C23.8452 24.0283 23.938 23.8161 23.9466 23.5924C23.9552 23.3687 23.8792 23.15 23.7335 22.9799L17.2535 16.4999Z" fill="#6C696A"/>
</g>
<defs>
<clipPath id="clip0_1344_16271">
<rect width="32" height="32" fill="white" transform="translate(0 0.5)"/>
</clipPath>
</defs>
</svg>
