<svg width="96" height="29" viewBox="0 0 96 29" fill="none" xmlns="http://www.w3.org/2000/svg">
<g clip-path="url(#clip0_1303_18257)">
<path d="M9.76751 10.5909C10.2569 11.2798 10.7378 11.9485 11.2072 12.6172C11.4519 12.9703 11.4491 13.1671 10.9227 13.2134C9.72768 13.3263 8.67208 13.2308 8.13432 11.8993C7.6933 10.8109 6.88808 10.4519 5.7329 10.5735C4.75544 10.639 3.77407 10.6089 2.80225 10.4838C1.18328 10.3246 0.298398 9.40987 0.113454 7.77729C-0.0430265 6.37015 -0.0430265 4.94954 0.113454 3.5424C0.306934 1.73325 1.18613 0.74617 2.95874 0.668015C5.19798 0.566702 7.44861 0.560912 9.685 0.668015C11.469 0.757749 12.4051 1.85482 12.499 3.67845C12.5559 4.735 12.5502 5.80024 12.5331 6.86257C12.4876 9.14356 11.9726 9.85276 9.76751 10.5909ZM6.33041 8.56463C7.15269 8.56463 7.97214 8.582 8.79442 8.56463C9.67077 8.54148 10.2569 8.11307 10.2996 7.18099C10.348 6.15628 10.3508 5.12578 10.2996 4.10107C10.2654 3.18925 9.73053 2.6769 8.8428 2.65374C7.13562 2.6219 5.42845 2.59296 3.72128 2.65374C2.66283 2.69427 2.27872 3.169 2.23319 4.26028C2.19336 5.15763 2.18767 6.06076 2.23319 6.9581C2.28725 8.06676 2.7425 8.50385 3.84932 8.54727C4.68583 8.5849 5.50812 8.56463 6.33041 8.56463Z" fill="#231F20"/>
<path d="M62.8926 23.2551C62.8926 21.8368 62.9096 20.4213 62.8926 19.0058C62.8926 18.3776 63.1031 18.1634 63.7234 18.1721C65.9712 18.204 68.2161 18.1519 70.4639 18.1982C73.3092 18.259 74.4473 19.4747 74.4729 22.3781C74.4729 23.2783 74.4871 24.1814 74.4302 25.0817C74.3107 26.94 73.3092 28.0574 71.5053 28.2918C68.8592 28.6305 66.196 28.37 63.5385 28.4424C62.9523 28.4568 62.8926 28.0603 62.8954 27.6C62.8954 26.1527 62.8926 24.7025 62.8926 23.2551ZM65.1091 23.3507C65.1091 24.1554 65.1091 24.9601 65.1091 25.7648C65.1091 26.1237 65.1233 26.3785 65.5928 26.3727C67.2715 26.3466 68.9474 26.3727 70.6261 26.3379C71.5223 26.3119 72.0772 25.8111 72.2194 24.8646C72.3207 24.0001 72.3407 23.1277 72.2792 22.2594C72.2308 20.7947 71.676 20.2331 70.2249 20.1984C68.7738 20.1636 67.2487 20.1984 65.7606 20.1781C65.2741 20.1781 65.0806 20.3142 65.1034 20.8323C65.1461 21.6747 65.1091 22.5112 65.1091 23.3507Z" fill="#231F20"/>
<path d="M89.6981 24.1668C88.6538 24.1668 87.6096 24.1379 86.5682 24.1842C86.2183 24.1987 85.6208 23.8658 85.5553 24.4939C85.4899 25.1221 85.5297 25.8023 86.2211 26.167C86.6017 26.3307 87.0157 26.3983 87.4275 26.3639C89.3566 26.3639 91.2857 26.4044 93.2148 26.3465C94.0257 26.3205 94.0684 26.7199 94.0457 27.3423C94.0172 27.9212 94.1851 28.5001 93.2348 28.4596C90.8988 28.3467 88.5542 28.6072 86.224 28.3207C84.4428 28.1007 83.6632 27.3712 83.4384 25.5939C83.2302 24.0297 83.2369 22.4437 83.4583 20.8814C83.7002 19.2575 84.568 18.3399 86.1443 18.2762C88.6055 18.1604 91.0752 18.1778 93.542 18.2125C94.4582 18.227 93.9233 19.0375 94.0257 19.4804C94.1424 19.9869 93.929 20.2214 93.3656 20.2127C91.3739 20.1809 89.3822 20.1867 87.3905 20.2127C86.1414 20.2272 85.7374 20.5804 85.5667 21.5732C85.4586 22.1782 85.6151 22.3577 86.2297 22.349C88.4746 22.3143 90.7195 22.349 92.9644 22.3258C93.6132 22.3258 94.0058 22.3548 94.0115 23.229C94.0172 24.1032 93.6274 24.216 92.9275 24.19C91.8491 24.1379 90.7736 24.1668 89.6981 24.1668Z" fill="#231F20"/>
<path d="M30.6037 24.9683C31.3833 25.9583 32.0747 26.8325 32.7605 27.7096C32.8885 27.8775 33.1247 28.028 32.9938 28.2885C32.8629 28.549 32.6011 28.4101 32.3963 28.4448C31.2582 28.6387 30.3448 28.3348 29.8184 27.2146C29.0075 25.4951 27.693 24.9944 25.835 25.1478C23.6868 25.3273 23.684 25.1912 23.6612 27.3419C23.6612 27.6951 23.8832 28.2103 23.4137 28.3695C22.8342 28.5413 22.2178 28.5363 21.6411 28.3551C21.3566 28.2653 21.4305 27.9209 21.4305 27.6719C21.4305 24.7773 21.4305 21.8826 21.4305 18.988C21.4305 18.409 21.6041 18.1804 22.1931 18.1861C24.788 18.2122 27.3857 18.1717 29.9778 18.218C31.7447 18.2498 32.5385 19.0864 32.6979 20.8811C32.7245 21.2664 32.7311 21.6529 32.7178 22.0389C32.7093 23.4399 32.254 24.5515 30.6037 24.9683ZM26.5549 20.1719C25.7383 20.2645 24.549 19.7869 23.8063 20.3861C23.3966 20.7161 23.7011 21.9608 23.684 22.7944C23.684 22.8581 23.684 22.9218 23.684 22.9884C23.6555 23.3328 23.8348 23.4197 24.1449 23.4168C25.8521 23.4168 27.5593 23.4428 29.2665 23.3936C30.2623 23.3647 30.544 22.9073 30.5184 21.6568C30.4956 20.5945 30.1713 20.2095 29.1982 20.1777C28.3787 20.1429 27.5564 20.1719 26.5549 20.1719Z" fill="#231F20"/>
<path d="M75.5706 5.3803C75.5706 6.73211 75.5877 8.08391 75.5706 9.43282C75.5564 10.4749 75.2036 10.7615 74.2021 10.8657C72.7567 11.0162 71.7039 10.6052 70.8361 9.30546C69.4334 7.20683 67.8371 5.25294 66.3149 3.22668C66.1755 3.03853 66.0901 2.68538 65.7772 2.78958C65.4642 2.89379 65.6121 3.23537 65.6093 3.46404C65.6093 5.62056 65.5581 7.77998 65.6235 9.9336C65.652 10.8744 65.1825 10.8744 64.5139 10.8599C63.8452 10.8454 63.3757 10.9149 63.39 9.94517C63.4554 7.37182 63.4042 4.79558 63.4156 2.22223C63.4156 0.902271 63.7542 0.690961 65.0573 0.566491C66.48 0.433337 67.4075 0.928327 68.2213 2.12671C69.624 4.18481 71.1832 6.13291 72.6798 8.12733C72.8449 8.34443 72.9644 8.7381 73.2887 8.62521C73.6131 8.51232 73.4481 8.11286 73.4481 7.84366C73.4481 5.71898 73.5107 3.5943 73.431 1.47542C73.394 0.485445 73.9232 0.607021 74.5378 0.580969C75.2207 0.554918 75.6759 0.580964 75.6019 1.51594C75.5137 2.79538 75.5792 4.08929 75.5792 5.37452L75.5706 5.3803Z" fill="#231F20"/>
<path d="M33.7191 4.59599C33.6736 5.69017 33.8102 6.97829 33.5911 8.25772C33.3549 9.624 32.6151 10.5011 31.2636 10.6834C28.8181 11.0163 26.3399 11.0163 23.8943 10.6834C22.5627 10.4982 21.7632 9.59216 21.601 8.22877C21.3165 5.88989 21.5327 3.53654 21.4758 1.19187C21.4758 0.80109 21.6209 0.586886 22.0449 0.612938C22.2652 0.637535 22.4875 0.637535 22.7078 0.612938C23.4619 0.505836 23.7549 0.751883 23.7236 1.59133C23.6582 3.32813 23.6952 5.06492 23.7065 6.80171C23.7065 8.31851 24.1504 8.75271 25.6328 8.76429C27.0242 8.76429 28.4155 8.78166 29.8068 8.76429C31.0076 8.74403 31.4656 8.28378 31.4827 7.05644C31.5083 5.18939 31.5339 3.32234 31.4827 1.45818C31.4543 0.636099 31.8384 0.540568 32.4501 0.627408C32.985 0.705563 33.813 0.259789 33.7476 1.42634C33.6736 2.41052 33.7191 3.40918 33.7191 4.59599Z" fill="#231F20"/>
<path d="M47.704 26.3494C46.8504 26.3494 45.9968 26.3928 45.1433 26.3349C44.5457 26.2944 44.1616 26.4854 44.0051 27.0643C43.6438 28.3988 42.6963 28.5696 41.5326 28.4596C40.9635 28.4075 40.8725 28.2685 41.1513 27.7706C41.6379 26.9022 42.0846 26.0338 42.554 25.151C43.5954 23.2115 44.6283 21.2634 45.6839 19.3327C45.8751 18.9541 46.1653 18.6365 46.5224 18.4148C46.8796 18.193 47.2899 18.0757 47.7083 18.0757C48.1267 18.0757 48.537 18.193 48.8941 18.4148C49.2513 18.6365 49.5414 18.9541 49.7327 19.3327C51.2606 22.1 52.743 24.8933 54.2681 27.6635C54.6294 28.3206 54.4673 28.4132 53.7787 28.4856C52.6406 28.6014 51.898 28.2685 51.5452 27.1309C51.346 26.4941 50.9107 26.2972 50.2534 26.3465C49.414 26.3986 48.5576 26.3494 47.704 26.3494ZM45.3339 24.5605H50.1709C49.4339 23.1826 48.7482 21.9003 48.0625 20.615C47.8577 20.2301 47.6528 20.1374 47.4195 20.5803L45.3339 24.5605Z" fill="#231F20"/>
<path d="M53.7358 10.8801C52.905 11.1696 52.4895 10.5356 52.1965 9.78301C51.9034 9.0304 51.4169 8.7062 50.5491 8.75252C48.9415 8.84225 47.3225 8.8162 45.7121 8.75252C45.0719 8.73225 44.6764 8.91462 44.5085 9.52539C44.1529 10.8048 43.2623 11.0075 42.1099 10.8946C41.4982 10.8367 41.3872 10.7151 41.6917 10.1622C42.4827 8.73515 43.2367 7.29072 44.0077 5.85497C44.7475 4.47422 45.4674 3.08189 46.2356 1.71851C46.4304 1.35016 46.7196 1.04237 47.0726 0.827831C47.4255 0.613288 47.829 0.5 48.2401 0.5C48.6513 0.5 49.0547 0.613288 49.4076 0.827831C49.7606 1.04237 50.0498 1.35016 50.2446 1.71851C51.7185 4.37001 53.1411 7.05336 54.5865 9.72512C55.2125 10.8801 55.2096 10.8801 53.7358 10.8801ZM50.7141 7.03888L48.6 3.06452C48.4464 2.77505 48.2358 2.51164 47.9997 2.94294C47.2713 4.26869 46.577 5.61761 45.8344 7.03599L50.7141 7.03888Z" fill="#231F20"/>
<path d="M7.00533 18.1832C8.7438 18.1832 10.4851 18.2209 12.2236 18.1659C12.9719 18.1456 13.0772 18.5103 13.0146 19.1037C12.9719 19.6421 13.2223 20.3253 12.252 20.2847C11.1794 20.2384 10.0982 20.334 9.02833 20.2558C8.23734 20.2008 8.10077 20.5105 8.11499 21.2313C8.16052 23.3531 8.08654 25.4807 8.15198 27.5995C8.18044 28.5374 7.66259 28.4506 7.07646 28.4448C6.49034 28.439 5.88429 28.5953 5.91559 27.5764C5.98387 25.3909 5.91559 23.1997 5.94973 21.0113C5.94973 20.4092 5.77332 20.2355 5.19573 20.2558C4.05761 20.2992 2.9195 20.2558 1.78138 20.2761C0.762771 20.305 1.14973 19.5524 1.09282 19.0603C1.03592 18.5682 1.03592 18.1369 1.78707 18.1601C3.52554 18.2209 5.26686 18.1832 7.00533 18.1832Z" fill="#231F20"/>
<path d="M90.0672 0.612643C91.7743 0.612643 93.4815 0.658955 95.1887 0.592378C96.0423 0.560537 96.0053 1.02079 95.9967 1.6113C95.9882 2.20181 96.0764 2.76916 95.1631 2.72863C94.025 2.66495 92.8868 2.72864 91.7487 2.70258C91.2451 2.68522 91.1114 2.85021 91.1199 3.35098C91.1455 5.44093 91.0915 7.53376 91.1484 9.62371C91.1711 10.521 91.0488 10.9118 90.0103 10.9176C88.8977 10.9176 88.8921 10.3908 88.9063 9.56871C88.9404 7.54245 88.892 5.51619 88.9347 3.48993C88.9347 2.84153 88.7413 2.67364 88.138 2.70258C87.128 2.75179 86.1094 2.65627 85.105 2.73442C84.2201 2.80389 84.0636 2.44496 84.0664 1.62577C84.0664 0.855794 84.2286 0.56054 85.0509 0.595275C86.7126 0.658958 88.3913 0.612643 90.0672 0.612643Z" fill="#231F20"/>
</g>
<defs>
<clipPath id="clip0_1303_18257">
<rect width="96" height="28" fill="white" transform="translate(0 0.5)"/>
</clipPath>
</defs>
</svg>
