<svg width="43" height="39" viewBox="0 0 43 39" fill="none" xmlns="http://www.w3.org/2000/svg">
<g clip-path="url(#clip0_1303_18208)">
<path d="M3.79933 2.9834H1.79492V4.95059H3.79933V2.9834Z" fill="#C21C1D"/>
<path d="M3.79911 5.68018H2.73535V6.72418H3.79911V5.68018Z" fill="#C21C1D"/>
<path d="M1.05429 7.24121H0V8.27592H1.05429V7.24121Z" fill="#C21C1D"/>
<path d="M2.84079 8.89404H1.78809V9.92721H2.84079V8.89404Z" fill="#C21C1D"/>
<path d="M6.63554 8.47266H4.52539V10.4352H6.63554V8.47266Z" fill="#C21C1D"/>
<path d="M8.84913 10.2402H7.80273V11.2672H8.84913V10.2402Z" fill="#C21C1D"/>
<path d="M6.5308 11.4795H5.5791V12.4135H6.5308V11.4795Z" fill="#C21C1D"/>
<path d="M3.78776 11.7891H1.78809V13.8492H3.78776V11.7891Z" fill="#C21C1D"/>
<path d="M5.58125 14.3711H4.52539V15.4074H5.58125V14.3711Z" fill="#C21C1D"/>
<path d="M9.37189 12.4136H7.37695V14.4799H9.37189V12.4136Z" fill="#C21C1D"/>
<path d="M12.1244 12.8179H11.0654V13.8572H12.1244V12.8179Z" fill="#C21C1D"/>
<path d="M12.1274 14.9985H10.1104V17.0633H12.1274V14.9985Z" fill="#C21C1D"/>
<path d="M14.9888 11.8931H12.8486V13.9578H14.9888V11.8931Z" fill="#C21C1D"/>
<path d="M14.9891 14.6812H13.7959V15.736H14.9891V14.6812Z" fill="#C21C1D"/>
<path d="M17.7412 16.2407H16.6475V17.2785H17.7412V16.2407Z" fill="#C21C1D"/>
<path d="M17.2032 9.10938H16.1221V10.1301H17.2032V9.10938Z" fill="#C21C1D"/>
<path d="M13.9187 17.8999H12.8486V18.9501H13.9187V17.8999Z" fill="#C21C1D"/>
<path d="M12.1274 18.8232H10.1104V20.8834H12.1274V18.8232Z" fill="#C21C1D"/>
<path d="M14.9632 20.7856H12.8594V22.7652H14.9632V20.7856Z" fill="#C21C1D"/>
<path d="M17.718 19.2476H15.6016V21.3247H17.718V19.2476Z" fill="#C21C1D"/>
<path d="M17.0799 23.3726H16.0225V24.4104H17.0799V23.3726Z" fill="#C21C1D"/>
<path d="M14.9672 25.4463H13.8135V26.4872H14.9672V25.4463Z" fill="#C21C1D"/>
<path d="M17.7054 27.8301H15.6016V29.7926H17.7054V27.8301Z" fill="#C21C1D"/>
<path d="M17.707 31.1406H16.6543V32.1738H17.707V31.1406Z" fill="#C21C1D"/>
<path d="M16.654 33.8311H15.707V34.7604H16.654V33.8311Z" fill="#C21C1D"/>
<path d="M19.8198 11.3789H19.3984V38.9986H19.8198V11.3789Z" fill="#C21C1D"/>
<path d="M22.771 11.3647H22.3496V38.9999H22.771V11.3647Z" fill="#C21C1D"/>
<path d="M25.563 9.1001H25.1416V36.726H25.563V9.1001Z" fill="#C21C1D"/>
<path d="M20.5586 15.519H19.8184V30.6308H20.5586V15.519Z" fill="#C21C1D"/>
<path d="M19.3971 14.5771H18.6758V18.8229H19.3971V14.5771Z" fill="#C21C1D"/>
<path d="M19.399 19.7524H18.6572V36.5108H19.399V19.7524Z" fill="#C21C1D"/>
<path d="M18.6777 24.6255H17.707V26.5834H18.6777V24.6255Z" fill="#C21C1D"/>
<path d="M20.5523 32.5796H19.8184V35.5954H20.5523V32.5796Z" fill="#C21C1D"/>
<path d="M19.3986 18.8232H19.1855V19.7526H19.3986V18.8232Z" fill="#C21C1D"/>
<path d="M23.6043 14.5771H21.4941V36.509H23.6043V14.5771Z" fill="#C21C1D"/>
<path d="M26.3512 11.9009H24.3516V34.8566H26.3512V11.9009Z" fill="#C21C1D"/>
<path d="M28.3569 10.0342H27.9355V31.0243H28.3569V10.0342Z" fill="#C21C1D"/>
<path d="M31.0923 11.7832H30.6709V23.5895H31.0923V11.7832Z" fill="#C21C1D"/>
<path d="M29.111 11.9009H27.1113V26.4705H29.111V11.9009Z" fill="#C21C1D"/>
<path d="M40.2174 3.00049H38.2178V14.6875H40.2174V3.00049Z" fill="#C21C1D"/>
<path d="M42.9997 7.22607H41V10.4386H42.9997V7.22607Z" fill="#C21C1D"/>
<path d="M31.8815 12.8472H29.8818V20.7748H31.8815V12.8472Z" fill="#C21C1D"/>
<path d="M33.9107 10.7622H33.4893V20.2512H33.9107V10.7622Z" fill="#C21C1D"/>
<path d="M34.6979 11.7832H32.6982V19.6318H34.6979V11.7832Z" fill="#C21C1D"/>
<path d="M36.6841 8.06543H36.2627V18.8292H36.6841V8.06543Z" fill="#C21C1D"/>
<path d="M39.4282 0H39.0068V17.0557H39.4282V0Z" fill="#C21C1D"/>
<path d="M42.2105 6.31055H41.7891V13.1369H42.2105V6.31055Z" fill="#C21C1D"/>
<path d="M37.4352 8.70068H35.4355V17.0558H37.4352V8.70068Z" fill="#C21C1D"/>
</g>
<defs>
<clipPath id="clip0_1303_18208">
<rect width="43" height="39" fill="white"/>
</clipPath>
</defs>
</svg>
